<svg fill="#ffffff" xmlns="http://www.w3.org/2000/svg" xmlns:xlink="http://www.w3.org/1999/xlink" id="Layer_1" x="0px" y="0px" viewBox="0 0 148.1 64.4" style="enable-background:new 0 0 148.1 64.4;" xml:space="preserve"><style type="text/css">	.st0{fill:#FFFFFF;}	.st1{fill:#FF7443;}	.st2{fill:#FF4605;}	.st3{fill:#F1EFEF;}</style><g id="Group_562">	<path id="Subtraction_23" class="st0" d="M27.8,64c-7.2,0-13-5.9-12.9-13.1S20.7,38,27.9,38s13,5.9,12.9,13.1c0,5.2-3.2,9.9-8,11.9   C31.2,63.7,29.5,64,27.8,64z M27.8,43.4c-4.2,0-7.6,3.4-7.6,7.6s3.4,7.6,7.6,7.6s7.6-3.4,7.6-7.6l0,0C35.4,46.8,32,43.4,27.8,43.4   C27.8,43.4,27.8,43.3,27.8,43.4L27.8,43.4z"></path>	<path id="Subtraction_22" class="st0" d="M116.8,63.9c-7.2,0-13-5.9-12.9-13.1c0-7.2,5.9-13,13.1-12.9s13,5.9,12.9,13.1   c0,5.2-3.2,9.9-8,11.9C120.3,63.6,118.6,63.9,116.8,63.9z M116.8,43.3c-4.2,0-7.6,3.4-7.6,7.6s3.4,7.6,7.6,7.6s7.6-3.4,7.6-7.6l0,0   C124.4,46.7,121,43.3,116.8,43.3z"></path>	<path id="Subtraction_24" class="st0" d="M142.8,23.1c0.1,1.2,0.1,2.4,0,3.6c0.2,1.5,0.1,3.1,0.2,4.6c0.1,1.9,0,3.9,0,5.7v0.6   c-0.1,1.1-0.1,2.1,0,3.2c0.5,1,0.9,2.1,1,3.2c0.2,1.1,0.2,2.3,0.2,3.4c0,1.3-0.2,2.5-0.4,3.8l-11.6,4.4c0.1-1.9,0.1-3.7-0.2-5.6   c-0.4-2.9-1.4-7-4.1-10s-6.4-4.4-11.1-4.4s-8.5,1.5-11.2,4.4c-2.4,2.8-3.9,6.3-4.4,10c-0.3,1.8-0.4,3.7-0.3,5.6H43.2   c0.1-1.9,0-3.7-0.3-5.6c-0.4-2.9-1.5-7-4.3-10c-2.6-2.9-6.3-4.3-10.9-4.3s-8.3,1.5-11,4.3c-2.8,3-4,7.1-4.4,10   c-0.3,1.9-0.4,3.7-0.3,5.6h-0.1c-1,0-4.6,0.2-7.1,0.2c-0.8,0.1-1.6,0-2.4-0.1l0,0c-2-2-2.8-5.1-2.2-9.3c0.4-2.6,1.1-5.1,2-7.5   c0.1-0.2,0.1-0.3,0.2-0.5l0,0c0.1-6,3.8-10.3,10.9-12.9c6.1-2.2,13.5-2.7,18.7-2.7c1.7,0,4.3,0,7.1,0.3h0.2c3-4,6.3-7.9,9.8-11.4   c2.4-2.4,5-4.6,7.7-6.5c2.1-1.6,4.4-2.8,6.8-3.6l11.4-0.1c0.6,0-0.2,20.6,0.4,20.6 M72.7,21.8l0-15.7h-9.8c-3,1.6-5.7,3.5-8.3,5.6   c-1.9,1.6-3.6,3.3-5.1,5.3c-1.3,1.6-2.4,3.4-3.2,5.3L72.7,21.8L72.7,21.8z"></path>	<path id="Path_252" class="st1" d="M141.9,35.2c0,0,1.1-5.3-0.4-6s-5.9,0.8-5.9,0.8s-1.2,2.7,0,3.5S141.9,35.2,141.9,35.2z"></path>	<path id="Path_254" class="st2" d="M13.7,31.5c-1.2-0.2-8.3-1.5-9.5,5.2c0.1,0.1,4,0,4,0S13,35.3,13.7,31.5z"></path>	<path id="Path_266" class="st3" d="M49.8,22.1l48.3,33.6H44.8L49.8,22.1z"></path></g><path class="st0" d="M74.9,1.5v21.4H86V2.3c0-0.4-0.4-0.8-0.8-0.8H74.9z M83.3,21.7h-7.9V6.4h7.9V21.7z"></path></svg>